<?xml version="1.0" encoding="UTF-8"?>
<svg width="1600" height="900" viewBox="0 0 1600 900" fill="none" xmlns="http://www.w3.org/2000/svg">
  <defs>
    <filter id="shadow" x="-20%" y="-20%" width="140%" height="140%">
      <feDropShadow dx="0" dy="14" stdDeviation="18" flood-color="#2A211B" flood-opacity="0.10"/>
    </filter>
    <linearGradient id="paper" x1="0" y1="0" x2="1600" y2="900" gradientUnits="userSpaceOnUse">
      <stop stop-color="#F7F2EA"/>
      <stop offset="1" stop-color="#EFE7DC"/>
    </linearGradient>
  </defs>
  <rect width="1600" height="900" fill="url(#paper)"/>
  <rect x="72" y="70" width="1456" height="760" rx="22" fill="#FFFDF8" stroke="#D7CABD"/>

  <text x="120" y="145" fill="#2E2925" font-family="Inter, -apple-system, BlinkMacSystemFont, Segoe UI, sans-serif" font-size="46" font-weight="720">Codex Memory Lab</text>
  <text x="120" y="188" fill="#776A5E" font-family="Inter, -apple-system, BlinkMacSystemFont, Segoe UI, sans-serif" font-size="24">把 Agent 对话整理成可审阅、可复用、可沉淀的本地工作记忆</text>

  <g transform="translate(120 255)">
    <rect width="250" height="150" rx="18" fill="#FFFFFF" stroke="#D8CBBE" filter="url(#shadow)"/>
    <circle cx="52" cy="54" r="24" fill="#F0E5D8" stroke="#CBB9A7"/>
    <path d="M42 54h20M52 44v20" stroke="#6F5B4A" stroke-width="5" stroke-linecap="round"/>
    <text x="28" y="103" fill="#2E2925" font-family="Inter, -apple-system, BlinkMacSystemFont, Segoe UI, sans-serif" font-size="24" font-weight="700">继续对话</text>
    <text x="28" y="132" fill="#75695F" font-family="Inter, -apple-system, BlinkMacSystemFont, Segoe UI, sans-serif" font-size="17">Codex / Claude / Cursor</text>
  </g>

  <g transform="translate(420 255)">
    <rect width="250" height="150" rx="18" fill="#FFFFFF" stroke="#D8CBBE" filter="url(#shadow)"/>
    <circle cx="52" cy="54" r="24" fill="#EDF1EA" stroke="#B9C8B0"/>
    <path d="M42 48h22M42 58h16M42 68h20" stroke="#617457" stroke-width="4" stroke-linecap="round"/>
    <text x="28" y="103" fill="#2E2925" font-family="Inter, -apple-system, BlinkMacSystemFont, Segoe UI, sans-serif" font-size="24" font-weight="700">自动记录</text>
    <text x="28" y="132" fill="#75695F" font-family="Inter, -apple-system, BlinkMacSystemFont, Segoe UI, sans-serif" font-size="17">会话、工具、项目线索</text>
  </g>

  <g transform="translate(720 255)">
    <rect width="250" height="150" rx="18" fill="#FFFFFF" stroke="#D8CBBE" filter="url(#shadow)"/>
    <circle cx="52" cy="54" r="24" fill="#EFE7DE" stroke="#CDBFAF"/>
    <path d="M40 55c7-10 17-15 29-15M40 55c7 10 17 15 29 15M51 55h28" stroke="#725C4A" stroke-width="4" stroke-linecap="round"/>
    <text x="28" y="103" fill="#2E2925" font-family="Inter, -apple-system, BlinkMacSystemFont, Segoe UI, sans-serif" font-size="24" font-weight="700">人工审阅</text>
    <text x="28" y="132" fill="#75695F" font-family="Inter, -apple-system, BlinkMacSystemFont, Segoe UI, sans-serif" font-size="17">编辑、删除、补充</text>
  </g>

  <g transform="translate(1020 255)">
    <rect width="250" height="150" rx="18" fill="#FFFFFF" stroke="#D8CBBE" filter="url(#shadow)"/>
    <circle cx="52" cy="54" r="24" fill="#F2EBDD" stroke="#D2C0A4"/>
    <path d="M43 66l18-24M47 42h18M41 66h18" stroke="#7A613A" stroke-width="4" stroke-linecap="round" stroke-linejoin="round"/>
    <text x="28" y="103" fill="#2E2925" font-family="Inter, -apple-system, BlinkMacSystemFont, Segoe UI, sans-serif" font-size="24" font-weight="700">沉淀 Skill</text>
    <text x="28" y="132" fill="#75695F" font-family="Inter, -apple-system, BlinkMacSystemFont, Segoe UI, sans-serif" font-size="17">把经验变成能力</text>
  </g>

  <path d="M380 330H410" stroke="#9B8C7E" stroke-width="4" stroke-linecap="round"/>
  <path d="M398 318l12 12-12 12" stroke="#9B8C7E" stroke-width="4" stroke-linecap="round" stroke-linejoin="round"/>
  <path d="M680 330H710" stroke="#9B8C7E" stroke-width="4" stroke-linecap="round"/>
  <path d="M698 318l12 12-12 12" stroke="#9B8C7E" stroke-width="4" stroke-linecap="round" stroke-linejoin="round"/>
  <path d="M980 330H1010" stroke="#9B8C7E" stroke-width="4" stroke-linecap="round"/>
  <path d="M998 318l12 12-12 12" stroke="#9B8C7E" stroke-width="4" stroke-linecap="round" stroke-linejoin="round"/>

  <g transform="translate(120 500)">
    <rect width="610" height="235" rx="18" fill="#F7F4EF" stroke="#D8CBBE"/>
    <text x="32" y="55" fill="#2E2925" font-family="Inter, -apple-system, BlinkMacSystemFont, Segoe UI, sans-serif" font-size="26" font-weight="720">Viewer 里看什么</text>
    <g transform="translate(32 84)" fill="#FFFFFF" stroke="#D8CBBE">
      <rect width="160" height="50" rx="14"/><rect x="176" width="160" height="50" rx="14"/><rect x="352" width="160" height="50" rx="14"/>
      <rect y="66" width="160" height="50" rx="14"/><rect x="176" y="66" width="160" height="50" rx="14"/><rect x="352" y="66" width="160" height="50" rx="14"/>
    </g>
    <g font-family="Inter, -apple-system, BlinkMacSystemFont, Segoe UI, sans-serif" font-size="19" font-weight="680" fill="#3A332D">
      <text x="62" y="117">总览</text><text x="238" y="117">记忆</text><text x="414" y="117">会话</text>
      <text x="62" y="183">Skill</text><text x="238" y="183">待办</text><text x="414" y="183">活动</text>
    </g>
    <text x="32" y="212" fill="#776A5E" font-family="Inter, -apple-system, BlinkMacSystemFont, Segoe UI, sans-serif" font-size="18">少暴露内部字段，优先呈现用户能理解和操作的入口。</text>
  </g>

  <g transform="translate(790 500)">
    <rect width="610" height="235" rx="18" fill="#F7F4EF" stroke="#D8CBBE"/>
    <text x="32" y="55" fill="#2E2925" font-family="Inter, -apple-system, BlinkMacSystemFont, Segoe UI, sans-serif" font-size="26" font-weight="720">下次对话怎样变快</text>
    <g font-family="Inter, -apple-system, BlinkMacSystemFont, Segoe UI, sans-serif" font-size="20" fill="#3A332D">
      <text x="34" y="105">01  记住稳定偏好和项目背景</text>
      <text x="34" y="146">02  复用已确认的经验和工作方式</text>
      <text x="34" y="187">03  让 Agent 从上次进度继续，而不是重讲一遍</text>
    </g>
    <path d="M430 178c70 0 105-38 105-92" stroke="#6F5B4A" stroke-width="4" stroke-linecap="round"/>
    <path d="M520 98l15-12 12 15" stroke="#6F5B4A" stroke-width="4" stroke-linecap="round" stroke-linejoin="round"/>
  </g>
</svg>